<?xml version="1.0" encoding="utf-8"?>
<!-- Generator: Adobe Illustrator 16.0.3, SVG Export Plug-In . SVG Version: 6.00 Build 0)  -->
<!DOCTYPE svg PUBLIC "-//W3C//DTD SVG 1.0//EN" "http://www.w3.org/TR/2001/REC-SVG-20010904/DTD/svg10.dtd">
<svg version="1.0" id="Ebene_1" xmlns="http://www.w3.org/2000/svg" xmlns:xlink="http://www.w3.org/1999/xlink" x="0px" y="0px"
	 width="595.28px" height="841.89px" viewBox="0 0 595.28 841.89" enable-background="new 0 0 595.28 841.89" xml:space="preserve">
<polygon fill="#F39200" points="226.861,420.421 226.881,420.435 226.859,420.421 226.56,420.743 371.837,672.499 371.91,672.499 
	372.125,336.421 "/>
<polygon fill="#EC6608" points="168.39,319.729 81.252,336.528 81.214,336.55 81.141,336.548 81.141,420.547 81.284,420.549 
	153.889,462.467 153.936,462.439 516.909,252.548 "/>
<polygon fill="#E74011" points="299.08,126.877 299.044,126.898 153.788,462.681 262.54,399.795 "/>
<polygon fill="#F39200" points="372.166,420.77 372.096,420.851 299.133,714.853 299.206,714.813 299.277,714.853 299.277,714.771 
	371.879,672.853 371.952,672.853 372.096,420.891 372.166,420.851 372.132,420.831 372.166,420.809 "/>
<polygon fill="#F39200" points="226.549,252.506 226.549,252.547 226.62,252.548 226.656,252.568 226.583,252.609 226.477,252.547 
	168.444,319.729 81.197,420.547 81.34,420.549 153.945,462.467 153.992,462.439 220.028,309.786 244.735,252.671 226.691,252.589 
	244.79,252.547 "/>
<polygon fill="#A42423" points="299.438,126.803 299.438,126.72 299.367,126.762 299.297,126.72 299.297,126.803 299.284,126.81 
	287.11,217.731 282.426,252.722 226.208,672.6 371.845,252.969 371.845,252.722 371.957,252.722 372.043,252.474 372.043,168.721 
	"/>
<polygon fill="#E74011" points="226.386,168.678 226.243,168.676 226.243,252.636 226.243,252.677 244.483,252.677 298.943,126.787 
	"/>
<polygon fill="#F39200" points="516.19,336.563 516.19,252.769 370.982,420.687 370.982,420.727 371.055,420.77 371.055,420.686 
	516.548,336.77 "/>
<polygon fill="#BD1D1D" points="516.67,252.645 226.27,420.573 226.291,420.585 226.269,420.573 225.969,420.893 371.465,420.563 
	371.536,420.563 516.744,252.645 "/>
<polygon fill="#F39200" points="226.386,420.845 226.243,672.6 226.314,672.6 260.033,420.77 "/>
<polygon fill="#F39200" points="372.166,420.77 372.096,420.77 345.924,420.829 299.133,714.853 372.096,420.851 "/>
<polygon fill="#BD1D1D" points="225.648,252.913 225.648,252.831 225.507,252.789 225.578,252.789 225.614,252.81 225.542,252.852 
	225.434,252.789 225.434,252.913 80.266,336.769 515.925,252.789 "/>
<polygon fill="#BD1D1D" points="372.011,252.548 361.613,282.506 335.601,357.454 280.829,515.267 226.243,672.551 298.848,714.469 
	298.848,714.55 320.075,583.275 357.539,344.769 367.498,281.372 372.023,252.548 "/>
<polygon fill="#E74011" points="371.278,252.789 516.27,252.789 443.664,210.872 443.664,210.79 443.595,210.831 443.523,210.79 
	443.523,210.872 371.349,252.542 371.263,252.789 "/>
<polygon fill="#F39200" points="444.229,546.965 298.931,714.853 299.005,714.813 299.074,714.853 299.074,714.771 444.424,630.854 
	444.424,546.852 "/>
<polygon fill="#E74011" points="444.424,546.661 372.04,504.872 371.871,505.355 371.871,505.355 335.592,609.683 299.126,714.55 
	357.313,647.318 362.149,641.729 "/>
</svg>
